<svg xmlns="http://www.w3.org/2000/svg" width="18" height="16" viewBox="0 0 18 16"><path d="M12.9 5.3C12.8 4.2 12.2 3.3 11.4 2.7 11.4 1.2 12.6 0 14.1 0 15.5 0 16.7 1.2 16.7 2.8 16.7 4.3 15.5 5.6 14.1 5.6 13.7 5.6 13.3 5.5 12.9 5.3ZM11.8 5.7C11.8 7.2 10.6 8.5 9.1 8.5 7.7 8.5 6.5 7.2 6.5 5.7 6.5 4.1 7.7 2.9 9.1 2.9 10.6 2.9 11.8 4.1 11.8 5.7ZM10.3 9.3H8C6.1 9.3 5 10.2 5 12.2V15.2C5 15.2 6.9 16 9.4 16 11.9 16 14 14.8 14 14.8V12.2C14 10.2 12.1 9.3 10.3 9.3ZM12.8 6.5H15C16.9 6.5 18 7.4 18 9.3V12C18 12 17.2 13 15 13.1V12.2C15 9.3 11.5 8.5 11.5 8.5 11.5 8.5 12.8 7.4 12.8 6.5ZM4 5.6C4.5 5.6 5 5.4 5.4 5.1 5.6 4.3 6 3.5 6.6 2.9 6.7 2.9 6.7 2.9 6.7 2.9L6.7 2.9C6.7 2.9 6.7 2.8 6.7 2.8 6.7 1.2 5.5 0 4 0 2.6 0 1.4 1.2 1.4 2.8 1.4 4.3 2.6 5.6 4 5.6ZM5.5 6.5C5.5 7.4 6.5 8.5 6.5 8.5 6.5 8.5 4 9.3 4 12.2V13.1C1.6 13.8 0 12 0 12V9.3C0 7.4 1.1 6.5 3 6.5H5.5Z"/></svg>