<svg width="132" height="36" fill="none" xmlns="http://www.w3.org/2000/svg"><g fill-rule="evenodd" clip-rule="evenodd"><path d="M4 8h18c3 0 3 3 3 3v21s0 3-3 3H3.732a2 2 0 110-2H21c2 .029 2-2 2-2V12s0-2-2-2H5c-2 0-2 2-2 2v12.268A2 2 0 012 28a2 2 0 01-1-3.732V11s0-3 3-3zm22-3c0 1-1 1-1 1H1S0 6 0 5s1-1 1-1h7V2s0-2 2-2h6c2 0 2 2 2 2v2h7s1 0 1 1zM16 4V2h-6v2h6zM9 14s0-1 1-1 1 1 1 1v15s0 1-1 1-1-1-1-1V14zm6 0s0-1 1-1 1 1 1 1v15s0 1-1 1-1-1-1-1V14z" fill="#00D4FF"/><path d="M43.636 26.803c1.51 0 2.796-.536 3.86-1.607 1.063-1.071 1.595-2.367 1.595-3.886 0-1.52-.532-2.816-1.596-3.887-1.063-1.07-2.35-1.606-3.859-1.606s-2.795.535-3.859 1.606c-1.063 1.071-1.595 2.367-1.595 3.887s.532 2.815 1.595 3.886c1.064 1.071 2.35 1.607 3.86 1.607zm-5.454-10.877l.054-.055c1.491-1.501 3.291-2.252 5.4-2.252 2.11 0 3.91.75 5.4 2.252 1.491 1.502 2.237 3.315 2.237 5.439s-.746 3.936-2.237 5.438c-1.49 1.501-3.29 2.252-5.4 2.252-2.109 0-3.909-.75-5.4-2.252C36.746 25.246 36 23.434 36 21.31V8.099c0-.303.107-.561.32-.776.214-.215.47-.323.77-.323.3 0 .558.108.771.323.214.215.32.473.32.776v7.827zM57 10.323c0 .376-.134.698-.402.968s-.589.406-.962.406c-.372 0-.693-.135-.961-.405a1.326 1.326 0 01-.402-.969c0-.375.134-.698.402-.968s.589-.405.961-.405c.373 0 .694.135.962.405s.402.593.402.968zm-2.455 4.395c0-.302.107-.56.32-.776.215-.215.471-.323.771-.323.3 0 .557.108.77.323.215.215.321.474.321.776V27.9c0 .302-.106.561-.32.776-.214.215-.47.323-.77.323-.3 0-.557-.108-.771-.323a1.062 1.062 0 01-.32-.776V14.718zm5.455 0c0-.302.107-.56.32-.776.214-.215.47-.323.77-.323.3 0 .558.108.771.323.214.215.32.474.32.776v.893c1.364-1.328 3-1.992 4.91-1.992 1.955 0 3.625.698 5.011 2.095 1.387 1.396 2.08 3.078 2.08 5.046v7.141c0 .302-.107.561-.32.776-.214.215-.471.323-.771.323-.3 0-.557-.108-.77-.323a1.062 1.062 0 01-.321-.776v-7.14c0-1.365-.48-2.53-1.439-3.496-.959-.966-2.116-1.449-3.47-1.449-1.355 0-2.511.483-3.47 1.45-.96.965-1.44 2.13-1.44 3.494v7.141c0 .302-.106.561-.32.776-.213.215-.47.323-.77.323-.3 0-.557-.108-.77-.323a1.062 1.062 0 01-.321-.776V14.718zM78.546 27.9c0 .302-.107.561-.321.776-.214.215-.47.323-.77.323-.3 0-.557-.108-.77-.323a1.062 1.062 0 01-.321-.776V14.718c0-.302.106-.56.32-.776.214-.215.47-.323.77-.323.3 0 .557.108.771.323.214.215.32.474.32.776v.288c1.082-.924 2.355-1.387 3.819-1.387 1.654 0 3.068.59 4.24 1.772.246.247.469.508.669.783.2-.275.422-.536.668-.783 1.173-1.181 2.586-1.772 4.24-1.772 1.655 0 3.069.59 4.242 1.772 1.172 1.18 1.759 2.604 1.759 4.27v8.24c0 .302-.107.561-.32.776-.214.215-.471.323-.771.323-.3 0-.557-.108-.77-.323a1.062 1.062 0 01-.321-.776v-8.24c0-1.061-.373-1.968-1.118-2.718-.746-.751-1.646-1.127-2.7-1.127-1.055 0-1.955.376-2.7 1.127-.746.75-1.118 1.657-1.118 2.719v8.24c0 .301-.107.56-.32.775-.215.215-.471.323-.771.323-.3 0-.557-.108-.77-.323a1.062 1.062 0 01-.321-.776v-8.24c0-1.061-.373-1.968-1.118-2.718-.746-.751-1.646-1.127-2.7-1.127-1.055 0-1.955.376-2.7 1.127-.746.75-1.118 1.657-1.118 2.719v8.24zM108 15.816c-1.509 0-2.795.536-3.859 1.607s-1.596 2.367-1.596 3.887.532 2.815 1.596 3.886c1.064 1.071 2.35 1.607 3.859 1.607s2.795-.536 3.859-1.607 1.596-2.367 1.596-3.886c0-1.52-.532-2.816-1.596-3.887-1.064-1.07-2.35-1.606-3.859-1.606zm5.455 10.877C111.927 28.23 110.109 29 108 29s-3.909-.75-5.4-2.252c-1.491-1.502-2.236-3.314-2.236-5.438 0-2.124.745-3.937 2.236-5.439 1.491-1.501 3.291-2.252 5.4-2.252 2.109 0 3.909.75 5.4 2.252 1.491 1.502 2.236 3.315 2.236 5.439V27.9c0 .302-.106.561-.32.776a1.049 1.049 0 01-.771.323c-.3 0-.556-.108-.77-.323a1.06 1.06 0 01-.32-.776v-1.208zm4.363-11.975c0-.302.107-.56.321-.776.213-.215.47-.323.77-.323.3 0 .557.108.771.323.213.215.32.474.32.776v.893c1.364-1.328 3-1.992 4.909-1.992 1.955 0 3.625.698 5.011 2.095 1.387 1.396 2.08 3.078 2.08 5.046v7.141c0 .302-.107.561-.32.776a1.049 1.049 0 01-.771.323c-.3 0-.557-.108-.77-.323a1.06 1.06 0 01-.321-.776v-7.14c0-1.365-.479-2.53-1.438-3.496-.96-.966-2.116-1.449-3.471-1.449-1.354 0-2.511.483-3.47 1.45-.959.965-1.439 2.13-1.439 3.494v7.141c0 .302-.107.561-.32.776a1.049 1.049 0 01-.771.323c-.3 0-.557-.108-.77-.323a1.06 1.06 0 01-.321-.776V14.718z" fill="#fff"/></g></svg>