<svg width="36" height="36" viewBox="0 0 36 36" fill="none" xmlns="http://www.w3.org/2000/svg">
<rect width="36" height="36" rx="3" fill="#E8EFF1"/>
<path fill-rule="evenodd" clip-rule="evenodd" d="M24.9933 22.0487C25.023 22.2761 24.9537 22.4739 24.7858 22.6419L22.8147 24.5995C22.7257 24.6983 22.6097 24.7825 22.4664 24.8516C22.3231 24.9208 22.1824 24.9653 22.0441 24.9851C22.0342 24.9851 22.0045 24.9876 21.9551 24.9926C21.9057 24.9975 21.8415 25 21.7625 25C21.5747 25 21.2708 24.9679 20.8509 24.9036C20.431 24.8393 19.9172 24.6811 19.3096 24.429C18.7019 24.1769 18.0127 23.7987 17.2421 23.2945C16.4714 22.7903 15.6513 22.0982 14.7818 21.2182C14.0902 20.536 13.5171 19.8835 13.0626 19.2606C12.6081 18.6377 12.2425 18.0618 11.9658 17.5328C11.6892 17.0039 11.4817 16.5244 11.3433 16.0943C11.205 15.6642 11.1112 15.2934 11.0618 14.982C11.0124 14.6705 10.9926 14.4258 11.0025 14.2479C11.0124 14.0699 11.0173 13.971 11.0173 13.9513C11.0371 13.8128 11.0815 13.672 11.1507 13.5286C11.2198 13.3852 11.3038 13.2691 11.4026 13.1801L13.3738 11.2076C13.5121 11.0692 13.6702 11 13.8481 11C13.9765 11 14.0901 11.0371 14.1889 11.1112C14.2878 11.1854 14.3717 11.2768 14.4409 11.3856L16.0267 14.3962C16.1157 14.5544 16.1404 14.7274 16.1008 14.9152C16.0613 15.1031 15.9773 15.2613 15.8489 15.3898L15.1227 16.1165C15.1029 16.1363 15.0856 16.1684 15.0708 16.2129C15.056 16.2574 15.0486 16.2945 15.0486 16.3241C15.0881 16.5318 15.177 16.7691 15.3153 17.036C15.4339 17.2733 15.6167 17.5625 15.8637 17.9036C16.1107 18.2447 16.4615 18.6377 16.916 19.0826C17.3606 19.5374 17.7558 19.8909 18.1016 20.143C18.4474 20.395 18.7365 20.5805 18.9687 20.6991C19.2009 20.8178 19.3787 20.8895 19.5022 20.9141L19.6874 20.9512C19.7072 20.9512 19.7394 20.9438 19.7838 20.929C19.8282 20.9141 19.8604 20.8968 19.8801 20.877L20.7249 20.0169C20.9029 19.8587 21.1102 19.7796 21.3474 19.7796C21.5154 19.7796 21.6487 19.8092 21.7475 19.8686H21.7623L24.6227 21.5593C24.8303 21.6879 24.9538 21.851 24.9933 22.0487Z" fill="#475364"/>
</svg>
