<svg aria-hidden="true" width="0" height="0" style="position:absolute"><symbol fill="none" viewBox="0 0 50 40" id="2ec848a59464c7a64a114457fd43f3af" xmlns="http://www.w3.org/2000/svg"><g filter="url(#afilter0_b)"><rect width="50" height="40" rx="4" fill="#282E37"/><path fill-rule="evenodd" clip-rule="evenodd" d="M28.936 17.313a3.481 3.481 0 00-1.522-2.567c.022-1.52 1.194-2.745 2.638-2.746 1.458 0 2.64 1.248 2.64 2.788 0 1.54-1.182 2.789-2.64 2.789-.4 0-.776-.097-1.116-.264zm-1.163.354c0 1.54-1.182 2.788-2.64 2.788-1.458 0-2.64-1.248-2.64-2.788 0-1.54 1.182-2.788 2.64-2.788 1.458 0 2.64 1.248 2.64 2.788zm-1.52 3.67h-2.24c-1.864 0-3.013.91-3.013 2.879v2.939s1.94.845 4.424.845C27.908 28 30 26.784 30 26.784v-2.568c0-1.969-1.884-2.88-3.747-2.88zm2.524-2.837H31c1.863 0 3 .869 3 2.837V24s-.805 1.027-3 1.112v-.892c0-2.883-3.5-3.72-3.5-3.72s1.253-1.06 1.277-2zm-8.76-.923c.517 0 .997-.16 1.404-.43.13-.892.582-1.67 1.228-2.201l.003-.047c.002-.037.005-.073.005-.11 0-1.54-1.182-2.788-2.64-2.788-1.458 0-2.64 1.248-2.64 2.788 0 1.54 1.182 2.788 2.64 2.788zm1.472.923c.027.9 1.011 2 1.011 2s-2.5.837-2.5 3.72v.874C17.615 25.778 16 24 16 24v-2.663c0-1.968 1.137-2.837 3.001-2.837h2.488z" fill="#00D4FF"/></g><defs><filter id="afilter0_b" x="-4" y="-4" width="58" height="48" filterUnits="userSpaceOnUse" color-interpolation-filters="sRGB"><feFlood flood-opacity="0" result="BackgroundImageFix"/><feGaussianBlur in="BackgroundImage" stdDeviation="2"/><feComposite in2="SourceAlpha" operator="in" result="effect1_backgroundBlur"/><feBlend in="SourceGraphic" in2="effect1_backgroundBlur" result="shape"/></filter></defs></symbol></svg>