<svg aria-hidden="true" width="0" height="0" style="position:absolute"><symbol fill="none" viewBox="0 0 18 16" id="b9c663074f6f31b4429c4ba53b7fc8ee" xmlns="http://www.w3.org/2000/svg"><path fill-rule="evenodd" clip-rule="evenodd" d="M12.936 5.313a3.481 3.481 0 00-1.522-2.567C11.436 1.226 12.608 0 14.052 0c1.458 0 2.64 1.248 2.64 2.788 0 1.54-1.182 2.789-2.64 2.789-.4 0-.777-.097-1.116-.264zm-1.163.354c0 1.54-1.182 2.788-2.64 2.788-1.458 0-2.64-1.248-2.64-2.788 0-1.54 1.182-2.788 2.64-2.788 1.458 0 2.64 1.248 2.64 2.788zm-1.52 3.67h-2.24c-1.864 0-3.013.91-3.013 2.879v2.939S6.94 16 9.424 16C11.908 16 14 14.784 14 14.784v-2.568c0-1.969-1.884-2.88-3.747-2.88zM12.777 6.5H15c1.863 0 3 .869 3 2.837V12s-.805 1.027-3 1.112v-.892c0-2.883-3.5-3.72-3.5-3.72s1.253-1.06 1.277-2zm-8.76-.923c.517 0 .997-.16 1.404-.43.13-.892.582-1.67 1.228-2.201l.003-.047c.002-.037.005-.073.005-.11 0-1.54-1.182-2.788-2.64-2.788-1.458 0-2.64 1.248-2.64 2.788 0 1.54 1.182 2.788 2.64 2.788zM5.49 6.5c.027.9 1.011 2 1.011 2S4 9.337 4 12.22v.874C1.615 13.778 0 12 0 12V9.337C0 7.369 1.137 6.5 3.001 6.5H5.49z" fill="#00D4FF"/></symbol></svg>