<svg aria-hidden="true" width="0" height="0" style="position:absolute"><symbol viewBox="0 0 18 16" id="e3a43beedfee6df757d7fe16c8767d01" xmlns="http://www.w3.org/2000/svg"><path d="M12.9 5.3c-.1-1.1-.7-2-1.5-2.6 0-1.5 1.2-2.7 2.7-2.7 1.4 0 2.6 1.2 2.6 2.8 0 1.5-1.2 2.8-2.6 2.8-.4 0-.8-.1-1.2-.3zm-1.1.4c0 1.5-1.2 2.8-2.7 2.8-1.4 0-2.6-1.3-2.6-2.8 0-1.6 1.2-2.8 2.6-2.8 1.5 0 2.7 1.2 2.7 2.8zm-1.5 3.6H8c-1.9 0-3 .9-3 2.9v3s1.9.8 4.4.8c2.5 0 4.6-1.2 4.6-1.2v-2.6c0-2-1.9-2.9-3.7-2.9zm2.5-2.8H15c1.9 0 3 .9 3 2.8V12s-.8 1-3 1.1v-.9c0-2.9-3.5-3.7-3.5-3.7s1.3-1.1 1.3-2zM4 5.6c.5 0 1-.2 1.4-.5.2-.8.6-1.6 1.2-2.2h.1v-.1C6.7 1.2 5.5 0 4 0 2.6 0 1.4 1.2 1.4 2.8c0 1.5 1.2 2.8 2.6 2.8zm1.5.9c0 .9 1 2 1 2S4 9.3 4 12.2v.9c-2.4.7-4-1.1-4-1.1V9.3c0-1.9 1.1-2.8 3-2.8h2.5z"/></symbol></svg>