<svg aria-hidden="true" width="0" height="0" style="position:absolute"><symbol fill="none" viewBox="0 0 15 15" id="0139e0ee54f2b7789dccdf5fe259c032" xmlns="http://www.w3.org/2000/svg"><path d="M7.489 2.352l1.304 2.754v.001c.214.449.63.765 1.12.847l.008.001.008.001 2.995.448-2.191 2.254-.003.002a1.54 1.54 0 00-.412 1.335l.517 3.111-2.6-1.425a1.488 1.488 0 00-1.42-.01l-.01.005-.011.006-2.595 1.443.5-3.118h0v-.009a1.545 1.545 0 00-.42-1.316h0l-.714.7.714-.7m3.21-6.33l-3.21 6.33m3.21-6.33L6.204 5.108a1.503 1.503 0 01-1.12.857l-.01.002h0l-2.998.468 2.203 2.246m3.21-6.33l-3.21 6.33" stroke="#ABD02D" stroke-width="2"/></symbol></svg>