<svg aria-hidden="true" width="0" height="0" style="position:absolute"><symbol fill="none" viewBox="0 0 36 36" id="e137d374cc11b2f4900710c28fa40ab4" xmlns="http://www.w3.org/2000/svg"><rect width="36" height="36" rx="3" fill="#E8EFF1"/><path fill-rule="evenodd" clip-rule="evenodd" d="M24.993 22.049a.677.677 0 01-.207.593l-1.971 1.957a1.11 1.11 0 01-.349.253c-.143.069-.284.113-.422.133l-.089.008c-.05.005-.113.007-.192.007-.188 0-.492-.032-.912-.096-.42-.065-.934-.223-1.541-.475-.608-.252-1.297-.63-2.068-1.134-.77-.505-1.59-1.197-2.46-2.077a16.247 16.247 0 01-1.72-1.957 13.953 13.953 0 01-1.096-1.728 9.32 9.32 0 01-.623-1.439 7.64 7.64 0 01-.281-1.112 3.675 3.675 0 01-.06-.734c.01-.178.015-.277.015-.297.02-.138.065-.279.134-.422.069-.144.153-.26.252-.349l1.97-1.972a.653.653 0 01.475-.208c.128 0 .242.037.34.111.1.074.184.166.253.275l1.586 3.01a.721.721 0 01.074.52.924.924 0 01-.252.474l-.726.726a.247.247 0 00-.052.097.367.367 0 00-.022.111c.04.208.128.445.266.712.119.237.302.526.549.868.247.34.598.734 1.052 1.179.445.454.84.808 1.186 1.06.345.252.634.438.867.556.232.119.41.19.533.215l.185.037c.02 0 .052-.007.097-.022a.248.248 0 00.096-.052l.845-.86a.908.908 0 01.622-.237c.168 0 .302.03.4.089h.015l2.86 1.69c.208.129.332.292.371.49z" fill="#475364"/></symbol></svg>