<svg aria-hidden="true" width="0" height="0" style="position:absolute"><symbol fill="none" viewBox="0 0 14 14" id="6dde8fab883539e3adfabc15155bcbd9" xmlns="http://www.w3.org/2000/svg"><path fill-rule="evenodd" clip-rule="evenodd" d="M13.993 11.049a.677.677 0 01-.207.593L11.815 13.6a1.11 1.11 0 01-.349.252c-.143.069-.284.113-.422.133l-.089.008c-.05.005-.114.007-.193.007-.187 0-.491-.032-.911-.096-.42-.065-.934-.223-1.541-.475-.608-.252-1.297-.63-2.068-1.135-.77-.504-1.59-1.196-2.46-2.076a16.248 16.248 0 01-1.72-1.957A13.948 13.948 0 01.967 6.533a9.31 9.31 0 01-.623-1.439c-.138-.43-.232-.8-.281-1.112a3.676 3.676 0 01-.06-.734c.01-.178.015-.277.015-.297.02-.138.065-.279.134-.422.069-.144.153-.26.252-.349L2.373.208A.653.653 0 012.849 0c.129 0 .242.037.341.111.099.074.183.166.252.275l1.586 3.01a.722.722 0 01.074.52.925.925 0 01-.252.474l-.726.727a.247.247 0 00-.052.096.366.366 0 00-.022.111c.04.208.128.445.266.712.119.237.302.526.549.868.247.34.597.734 1.052 1.179.445.454.84.808 1.186 1.06.345.252.634.437.867.556.232.119.41.19.533.215l.185.037c.02 0 .052-.007.097-.022a.247.247 0 00.096-.052l.845-.86a.907.907 0 01.622-.237c.168 0 .302.03.4.089h.015l2.86 1.69c.208.129.332.292.371.49z" fill="#475364"/></symbol></svg>