<svg aria-hidden="true" width="0" height="0" style="position:absolute"><symbol viewBox="0 0 18 16" id="a6807a7044a574870df588014a8bb41c" xmlns="http://www.w3.org/2000/svg"><path fill-rule="evenodd" clip-rule="evenodd" d="M1 15.642c0 .195.149.358.336.358h2.328c.183 0 .336-.159.336-.358V9.451l-1.69 1.8c-.36.379-.678.768-1.31.768v3.623zm4 .003c0 .194.149.355.336.355h2.328A.346.346 0 008 15.645v-4.09L5 8.486v7.159zm4 .056c0 .163.149.299.336.299h2.328c.183 0 .336-.132.336-.299V8.81L9.336 11.61c-.103.092-.218.14-.336.208v3.882zm4-7.911v7.896c0 .171.149.314.336.314h2.328c.183 0 .336-.14.336-.314V4.654L13 7.79zM17.335 0h-.063c-1.108.053-2.213.11-3.322.162-.148.008-.35.016-.51.182a.603.603 0 00-.122.186c-.164.368.066.607.176.72l.277.291c.191.202.386.404.581.603L8.654 8.088 5.644 4.97a.931.931 0 00-1.355 0L.282 9.12a1.016 1.016 0 000 1.403l.18.186a.932.932 0 001.355 0l3.15-3.264 3.009 3.118a.94.94 0 00.68.291.947.947 0 00.678-.29l6.557-6.83.855.88c.102.106.242.252.457.252a.55.55 0 00.273-.077.746.746 0 00.164-.126c.168-.174.2-.396.207-.57.031-.744.067-1.488.102-2.237l.05-1.12c.012-.234-.039-.416-.16-.546-.113-.125-.285-.19-.503-.19z"/></symbol></svg>